<svg width="34" height="26" viewBox="0 0 34 26" fill="none" xmlns="http://www.w3.org/2000/svg">
<g clip-path="url(#clip0_11_31)">
<path d="M33.8198 22.3281C33.7787 22.215 33.7402 22.1212 33.7045 22.0461C33.1146 20.692 31.9874 19.03 30.3234 17.0596L30.2882 17.0144L30.2707 16.9923L30.2529 16.9696H30.235C29.4797 16.0521 29.0015 15.4351 28.8012 15.1193C28.4349 14.5176 28.3528 13.9085 28.553 13.2915C28.6945 12.8252 29.2261 11.8406 30.1463 10.3362C30.6303 9.53892 31.0136 8.89995 31.2968 8.41854C33.3387 4.95887 34.2239 2.74809 33.9522 1.78536L33.8468 1.56037C33.7759 1.42493 33.593 1.30102 33.2982 1.18801C33.0029 1.07525 32.6254 1.0566 32.165 1.13175L27.0669 1.17663C26.9843 1.13934 26.8663 1.14281 26.7128 1.18801C26.5593 1.23321 26.4824 1.2559 26.4824 1.2559L26.3937 1.3124L26.3233 1.38028C26.2643 1.42516 26.1994 1.50411 26.1285 1.61696C26.0579 1.72941 25.9991 1.86137 25.9519 2.01176C25.3968 3.83175 24.7658 5.5239 24.0575 7.0881C23.6208 8.02081 23.2198 8.82915 22.8536 9.51357C22.4878 10.1978 22.1809 10.7018 21.9332 11.025C21.6852 11.3484 21.4615 11.6075 21.2604 11.8033C21.0598 11.9991 20.9066 12.0818 20.8004 12.0516C20.6941 12.0213 20.594 11.9913 20.4991 11.9613C20.334 11.8258 20.2013 11.6416 20.1011 11.4085C20.0005 11.1754 19.9328 10.882 19.8975 10.5285C19.8621 10.1748 19.8414 9.87051 19.8354 9.61471C19.8298 9.35924 19.8324 8.99786 19.8444 8.53162C19.8567 8.06514 19.8621 7.74952 19.8621 7.58405C19.8621 7.0124 19.871 6.39197 19.8885 5.72264C19.9063 5.0533 19.9208 4.52298 19.9328 4.13229C19.9449 3.74118 19.9505 3.32744 19.9505 2.89122C19.9505 2.45501 19.9296 2.11291 19.8885 1.86462C19.8478 1.61664 19.7854 1.37593 19.7032 1.14257C19.6204 0.909456 19.4992 0.729122 19.3402 0.601105C19.1809 0.473243 18.9829 0.371776 18.7473 0.296389C18.1217 0.115977 17.325 0.0183828 16.3571 0.00321024C14.1622 -0.0268188 12.7518 0.153829 12.1263 0.544919C11.8785 0.710158 11.6542 0.935929 11.4537 1.22152C11.2412 1.55255 11.2116 1.7332 11.365 1.76291C12.0732 1.89812 12.5745 2.22157 12.8696 2.73293L12.9759 3.00391C13.0586 3.19941 13.1412 3.54553 13.2239 4.04181C13.3064 4.53806 13.3597 5.08705 13.3831 5.68841C13.442 6.78661 13.442 7.72668 13.3831 8.5087C13.324 9.29103 13.2682 9.90006 13.2149 10.3363C13.1617 10.7725 13.0821 11.126 12.9759 11.3966C12.8696 11.6674 12.7988 11.8328 12.7634 11.8929C12.728 11.953 12.6985 11.9908 12.675 12.0057C12.5216 12.0806 12.3621 12.1188 12.197 12.1188C12.0316 12.1188 11.8311 12.0133 11.5951 11.8027C11.3592 11.592 11.1143 11.3026 10.8606 10.934C10.6068 10.5654 10.3206 10.0502 10.0018 9.38847C9.6833 8.72673 9.35282 7.94463 9.01056 7.04219L8.72739 6.3877C8.55037 5.96665 8.30856 5.3536 8.00171 4.54905C7.69468 3.7442 7.42329 2.96565 7.18736 2.21357C7.09305 1.89773 6.95137 1.65726 6.76258 1.49178L6.67398 1.4239C6.61507 1.36384 6.52052 1.30007 6.39081 1.23211C6.26091 1.16423 6.12537 1.11555 5.98363 1.0856L1.13317 1.13048C0.637519 1.13048 0.301213 1.2736 0.124131 1.55943L0.0532608 1.69463C0.017857 1.76995 0 1.89022 0 2.05577C0 2.22125 0.0354039 2.42435 0.106274 2.66481C0.814351 4.78582 1.58437 6.83135 2.41633 8.80171C3.24829 10.7721 3.97125 12.3593 4.58476 13.5619C5.19841 14.7653 5.82391 15.9011 6.46124 16.9687C7.09857 18.0368 7.52044 18.7212 7.72686 19.0219C7.93351 19.3231 8.09582 19.5483 8.21382 19.6987L8.65647 20.2401C8.9397 20.6012 9.35561 21.0336 9.9044 21.5374C10.4533 22.0415 11.061 22.5377 11.7278 23.0269C12.3947 23.5155 13.1706 23.9139 14.0558 24.2222C14.9409 24.5308 15.8023 24.6547 16.6403 24.5949H18.6762C19.089 24.5494 19.4018 24.3841 19.6144 24.0985L19.6848 23.9854C19.7322 23.8955 19.7766 23.7562 19.8174 23.5683C19.8589 23.3805 19.8795 23.1734 19.8795 22.948C19.8674 22.3013 19.906 21.7185 19.9944 21.1997C20.0826 20.681 20.1831 20.2899 20.2956 20.0265C20.408 19.7634 20.5348 19.5413 20.6761 19.3613C20.8175 19.1809 20.9183 19.0716 20.9775 19.034C21.0363 18.9961 21.0832 18.9704 21.1186 18.955C21.4018 18.8347 21.7352 18.9512 22.119 19.305C22.5027 19.6585 22.8626 20.0949 23.199 20.6136C23.5355 21.1328 23.9396 21.7154 24.4115 22.3619C24.8839 23.0089 25.2968 23.4897 25.6506 23.806L26.0046 24.0769C26.241 24.2574 26.5479 24.4229 26.9256 24.5733C27.3027 24.7236 27.633 24.7613 27.9165 24.6861L32.4482 24.596C32.8965 24.596 33.2452 24.5013 33.4925 24.3137C33.7406 24.1256 33.8878 23.9185 33.9352 23.6934C33.9827 23.4678 33.9852 23.2119 33.9442 22.9257C33.9022 22.6404 33.8609 22.4408 33.8198 22.3281Z" fill="white"/>
</g>
<defs>
<clipPath id="clip0_11_31">
<rect width="34" height="26" fill="white"/>
</clipPath>
</defs>
</svg>
