<svg width="34" height="26" viewBox="0 0 34 26" fill="none" xmlns="http://www.w3.org/2000/svg">
<path d="M33.5193 3.00922C32.2522 3.53718 30.9847 3.86689 29.7181 3.99932C31.1487 3.16787 32.1164 1.99325 32.6207 0.475535C31.3119 1.22767 29.9155 1.74224 28.4306 2.01952C27.1223 0.673362 25.5149 0 23.6069 0C21.7813 0 20.2248 0.623506 18.9366 1.87079C17.6492 3.11801 17.0054 4.62575 17.0054 6.3942C17.0054 6.86924 17.0599 7.35774 17.1689 7.85921C14.471 7.72725 11.9402 7.07068 9.57599 5.88947C7.21194 4.70811 5.20559 3.13425 3.55699 1.16783C2.95744 2.15745 2.65758 3.23326 2.65758 4.39464C2.65758 5.49007 2.92323 6.50645 3.4549 7.44352C3.98621 8.38044 4.70171 9.13923 5.60103 9.72001C4.53807 9.68035 3.54344 9.40973 2.61707 8.90819V8.98737C2.61707 10.5316 3.1178 11.8875 4.11915 13.0558C5.12063 14.2241 6.38448 14.9594 7.9104 15.2631C7.33807 15.4081 6.75888 15.4807 6.17307 15.4807C5.79152 15.4807 5.3759 15.4478 4.92635 15.3823C5.3487 16.6622 6.1254 17.7143 7.25617 18.5397C8.38715 19.3645 9.66797 19.7896 11.0987 19.8167C8.70071 21.6377 5.96884 22.5482 2.90311 22.5482C2.31712 22.5482 1.78588 22.5224 1.3089 22.4694C4.37471 24.3828 7.75377 25.3396 11.4463 25.3396C13.7899 25.3396 15.9904 24.9803 18.0472 24.2608C20.1051 23.5418 21.8625 22.5782 23.3206 21.3703C24.7783 20.1628 26.0354 18.7737 27.0914 17.2032C28.1472 15.6326 28.9338 13.9929 29.4521 12.2838C29.9696 10.5744 30.2285 8.86229 30.2285 7.14626C30.2285 6.77667 30.2217 6.49965 30.2079 6.31479C31.5028 5.40457 32.6064 4.30234 33.5193 3.00922Z" fill="white"/>
</svg>
