<svg width="26" height="26" viewBox="0 0 26 26" fill="none" xmlns="http://www.w3.org/2000/svg">
<path d="M18.4562 0H7.55677C2.82241 0 0 2.821 0 7.553V18.434C0 23.179 2.82241 26 7.55677 26H18.4432C23.1775 26 26 23.179 26 18.447V7.553C26.013 2.821 23.1906 0 18.4562 0ZM13.0065 18.044C10.2231 18.044 7.95997 15.782 7.95997 13C7.95997 10.218 10.2231 7.956 13.0065 7.956C15.7899 7.956 18.053 10.218 18.053 13C18.053 15.782 15.7899 18.044 13.0065 18.044ZM20.7063 6.344C20.6413 6.5 20.5502 6.643 20.4332 6.773C20.3031 6.89 20.16 6.981 20.004 7.046C19.8479 7.111 19.6788 7.15 19.5097 7.15C19.1585 7.15 18.8334 7.02 18.5863 6.773C18.4692 6.643 18.3782 6.5 18.3131 6.344C18.2481 6.188 18.2091 6.019 18.2091 5.85C18.2091 5.681 18.2481 5.512 18.3131 5.356C18.3782 5.187 18.4692 5.057 18.5863 4.927C18.8854 4.628 19.3406 4.485 19.7568 4.576C19.8479 4.589 19.9259 4.615 20.004 4.654C20.082 4.68 20.16 4.719 20.2381 4.771C20.3031 4.81 20.3681 4.875 20.4332 4.927C20.5502 5.057 20.6413 5.187 20.7063 5.356C20.7714 5.512 20.8104 5.681 20.8104 5.85C20.8104 6.019 20.7714 6.188 20.7063 6.344Z" fill="white"/>
</svg>
