<svg width="26" height="26" viewBox="0 0 26 26" fill="none" xmlns="http://www.w3.org/2000/svg">
<path d="M25.9815 12.2333C25.5395 4.69348 18.6886 -1.11739 10.7978 0.182581C5.36389 1.07956 1.00898 5.48645 0.163995 10.9203C-0.329995 14.0662 0.320018 17.0432 1.73699 19.5001L0.579999 23.803C0.320005 24.778 1.21696 25.662 2.17894 25.389L6.41687 24.219C8.34083 25.35 10.5898 26 12.9948 26C20.3266 26 26.4105 19.5391 25.9815 12.2333ZM19.3516 17.8362C19.2346 18.0702 19.0916 18.2912 18.9096 18.4991C18.5846 18.8501 18.2336 19.1101 17.8437 19.2661C17.4537 19.4351 17.0247 19.5131 16.5697 19.5131C15.9067 19.5131 15.1917 19.3573 14.4507 19.0323C13.6967 18.7073 12.9558 18.2782 12.2148 17.7452C11.4608 17.1992 10.7588 16.5882 10.0828 15.9252C9.40682 15.2492 8.8088 14.5342 8.26281 13.7932C7.72982 13.0523 7.30085 12.3113 6.98886 11.5703C6.67686 10.8293 6.52089 10.1144 6.52089 9.4384C6.52089 8.99639 6.59888 8.5674 6.75488 8.17741C6.91087 7.77442 7.15789 7.41044 7.50889 7.08544C7.92488 6.66945 8.37984 6.47446 8.86083 6.47446C9.04282 6.47446 9.22479 6.51344 9.39378 6.59144C9.56278 6.66944 9.7188 6.78644 9.83581 6.95543L11.3438 9.08738C11.4608 9.25637 11.5518 9.39937 11.6038 9.54237C11.6688 9.68537 11.6948 9.81536 11.6948 9.94536C11.6948 10.1014 11.6428 10.2574 11.5518 10.4133C11.4608 10.5693 11.3438 10.7253 11.1878 10.8813L10.6938 11.4013C10.6158 11.4793 10.5898 11.5573 10.5898 11.6613C10.5898 11.7133 10.6028 11.7653 10.6158 11.8173C10.6418 11.8693 10.6548 11.9083 10.6678 11.9473C10.7848 12.1683 10.9928 12.4413 11.2788 12.7793C11.5778 13.1173 11.8898 13.4683 12.2278 13.8062C12.5788 14.1572 12.9168 14.4692 13.2677 14.7682C13.6057 15.0542 13.8917 15.2492 14.1127 15.3662C14.1517 15.3792 14.1907 15.4052 14.2297 15.4182C14.2817 15.4442 14.3337 15.4442 14.3987 15.4442C14.5157 15.4442 14.5937 15.4052 14.6717 15.3272L15.1657 14.8332C15.3347 14.6642 15.4907 14.5472 15.6337 14.4692C15.7897 14.3782 15.9327 14.3262 16.1017 14.3262C16.2317 14.3262 16.3617 14.3522 16.5047 14.4172C16.6477 14.4822 16.8037 14.5602 16.9597 14.6772L19.1176 16.2112C19.2866 16.3282 19.4036 16.4712 19.4816 16.6272C19.5466 16.7962 19.5856 16.9522 19.5856 17.1342C19.5076 17.3552 19.4556 17.6022 19.3516 17.8362Z" fill="white"/>
</svg>
